<svg width="81" height="47" viewBox="0 0 81 47" fill="none" xmlns="http://www.w3.org/2000/svg">
<g clip-path="url(#clip0)">
<path d="M11.547 9.04199C4.81126 9.04199 0 14.1601 0 20.7709C0 27.3819 4.81126 32.5 11.547 32.5C18.241 32.5 23.0522 27.3819 23.0522 20.7709C23.0522 14.1601 18.241 9.04199 11.547 9.04199ZM16.9859 20.7709C16.9859 24.439 14.8103 27.2965 11.547 27.2965C8.28374 27.2965 6.06638 24.439 6.06638 20.7709C6.06638 17.103 8.28374 14.2454 11.547 14.2454C14.8103 14.2454 16.9859 17.103 16.9859 20.7709Z" fill="#F9F9F9"/>
<path d="M32.4316 0H26.4907V31.9882H32.4316V0Z" fill="#F9F9F9"/>
<path d="M43.3207 31.9882V9.55382H37.3798V31.9882H43.3207ZM43.3207 6.44031V1.27954H37.3798V6.44031H43.3207Z" fill="#F9F9F9"/>
<path d="M63.4976 11.9849C61.4475 10.023 58.8118 9.04199 55.8832 9.04199C51.8669 9.04199 48.0178 11.3451 48.0178 15.9087C48.0178 19.8327 50.9046 21.3681 53.5403 22.5197C55.7159 23.5006 57.724 24.183 57.724 25.7611C57.724 27.126 56.1342 27.7231 54.921 27.7231C52.7873 27.7231 51.4066 26.7421 49.7332 25.0787L46.3444 28.6614C48.7709 31.1352 51.7832 32.5 55.2138 32.5C59.4812 32.5 63.6649 30.2395 63.6649 25.292C63.6649 21.0269 60.0669 19.5768 57.222 18.3825C55.3812 17.6148 53.7495 16.8897 53.7495 15.4823C53.7495 14.416 54.7536 13.7762 55.8832 13.7762C57.5567 13.7762 59.1047 14.6293 60.2343 15.6529L63.4976 11.9849Z" fill="#F9F9F9"/>
<path d="M79.3724 14.5866V9.5538H73.7663V4.60629H68.7458L67.8254 9.5538H65.1897V14.5866H67.8254V23.9272C67.8254 25.2493 67.9091 26.5715 68.2438 27.6804C69.0387 30.5807 71.3397 32.5 74.7704 32.5C76.4857 32.5 78.5775 32.0309 80 31.1779L78.1592 26.6995C77.4061 27.0834 76.6949 27.3392 75.7745 27.3392C74.5193 27.3392 74.0173 26.5288 73.8499 25.2067C73.7663 24.5669 73.7663 23.9698 73.7663 23.2874V14.5866H79.3724Z" fill="#F9F9F9"/>
</g>
<path d="M29.444 44.276C28.988 44.816 28.448 45.08 27.788 45.08C27.152 45.08 26.492 44.732 25.796 44C27.896 43.664 29.396 41.984 29.396 39.8C29.396 37.352 27.524 35.54 25.028 35.54C22.52 35.54 20.66 37.364 20.66 39.8C20.66 42.224 22.508 44.048 25.004 44.06C26.048 45.152 26.864 45.596 27.788 45.596C28.58 45.596 29.264 45.272 29.768 44.648L29.444 44.276ZM21.272 39.8C21.272 37.7 22.88 36.104 25.028 36.104C27.164 36.104 28.772 37.7 28.772 39.8C28.772 41.9 27.164 43.496 25.028 43.496C22.88 43.496 21.272 41.9 21.272 39.8ZM36.2107 37.736V41.072C36.2107 42.56 35.3347 43.508 33.9187 43.508C32.6107 43.508 31.8547 42.764 31.8547 41.348V37.736H31.2547V41.396C31.2547 43.148 32.2747 44.048 33.8707 44.048C34.9747 44.048 35.8267 43.532 36.2347 42.656V44H36.8107V37.736H36.2107ZM44.658 40.844C44.658 38.984 43.386 37.688 41.67 37.688C39.954 37.688 38.67 39.008 38.67 40.868C38.67 42.728 40.002 44.048 41.898 44.048C42.846 44.048 43.71 43.7 44.262 43.028L43.914 42.632C43.434 43.22 42.702 43.508 41.91 43.508C40.41 43.508 39.318 42.5 39.258 41.012H44.646C44.646 40.952 44.658 40.892 44.658 40.844ZM41.67 38.216C43.002 38.216 43.986 39.188 44.07 40.544H39.27C39.366 39.176 40.338 38.216 41.67 38.216ZM48.0982 44.048C49.6942 44.048 50.5702 43.352 50.5702 42.332C50.5702 39.944 46.4182 41.276 46.4182 39.392C46.4182 38.72 46.9582 38.216 48.1822 38.216C48.8542 38.216 49.5382 38.396 50.0662 38.78L50.3422 38.3C49.8502 37.928 48.9862 37.688 48.1942 37.688C46.6102 37.688 45.8182 38.456 45.8182 39.404C45.8182 41.864 49.9702 40.52 49.9702 42.344C49.9702 43.052 49.4422 43.52 48.1222 43.52C47.1982 43.52 46.3462 43.172 45.8662 42.764L45.5902 43.244C46.0822 43.7 47.0662 44.048 48.0982 44.048ZM55.1007 43.184C54.8487 43.412 54.5007 43.532 54.1287 43.532C53.3607 43.532 52.9647 43.088 52.9647 42.284V38.252H54.9567V37.736H52.9647V36.368H52.3647V37.736H51.2127V38.252H52.3647V42.344C52.3647 43.4 52.9647 44.048 54.0687 44.048C54.5367 44.048 55.0407 43.904 55.3527 43.604L55.1007 43.184ZM57.3259 36.212C57.6019 36.212 57.8179 35.996 57.8179 35.72C57.8179 35.456 57.6019 35.24 57.3259 35.24C57.0499 35.24 56.8339 35.468 56.8339 35.732C56.8339 35.996 57.0499 36.212 57.3259 36.212ZM57.0259 44H57.6259V37.736H57.0259V44ZM62.6028 44.048C64.4028 44.048 65.7348 42.728 65.7348 40.868C65.7348 39.008 64.4028 37.688 62.6028 37.688C60.8028 37.688 59.4708 39.008 59.4708 40.868C59.4708 42.728 60.8028 44.048 62.6028 44.048ZM62.6028 43.508C61.1628 43.508 60.0828 42.44 60.0828 40.868C60.0828 39.296 61.1628 38.228 62.6028 38.228C64.0428 38.228 65.1228 39.296 65.1228 40.868C65.1228 42.44 64.0428 43.508 62.6028 43.508ZM70.6562 37.688C69.4682 37.688 68.5922 38.216 68.1722 39.092V37.736H67.5962V44H68.1962V40.664C68.1962 39.176 69.0962 38.228 70.5722 38.228C71.8442 38.228 72.6002 38.972 72.6002 40.388V44H73.2002V40.34C73.2002 38.588 72.1802 37.688 70.6562 37.688ZM77.2544 44.048C78.8504 44.048 79.7264 43.352 79.7264 42.332C79.7264 39.944 75.5744 41.276 75.5744 39.392C75.5744 38.72 76.1144 38.216 77.3384 38.216C78.0104 38.216 78.6944 38.396 79.2224 38.78L79.4984 38.3C79.0064 37.928 78.1424 37.688 77.3504 37.688C75.7664 37.688 74.9744 38.456 74.9744 39.404C74.9744 41.864 79.1264 40.52 79.1264 42.344C79.1264 43.052 78.5984 43.52 77.2784 43.52C76.3544 43.52 75.5024 43.172 75.0224 42.764L74.7464 43.244C75.2384 43.7 76.2224 44.048 77.2544 44.048Z" fill="#F9F9F9"/>
<defs>
<clipPath id="clip0">
<rect width="80" height="32.5" fill="white"/>
</clipPath>
</defs>
</svg>
