<svg width="597" height="203" viewBox="0 0 597 203" fill="none" xmlns="http://www.w3.org/2000/svg">
<path d="M242.439 136.568V29.8645C242.439 25.9427 241.67 22.0592 240.176 18.4359C238.681 14.8125 236.491 11.5203 233.73 8.74712C230.969 5.97394 227.692 3.77413 224.084 2.2733C220.477 0.772469 216.611 0 212.706 0L29.7328 0C21.8472 0 14.2845 3.14643 8.70853 8.74712C3.13255 14.3478 0 21.944 0 29.8645L0 136.496C0 144.417 3.13255 152.013 8.70853 157.613C14.2845 163.214 21.8472 166.361 29.7328 166.361H56.3291L56.9052 193.268C56.9474 195.095 57.4903 196.875 58.4742 198.412C59.458 199.949 60.8448 201.185 62.482 201.982C64.1192 202.779 65.9436 203.108 67.7547 202.932C69.5657 202.755 71.2933 202.081 72.7477 200.983L118.507 166.361H212.754C220.621 166.354 228.164 163.214 233.729 157.629C239.294 152.044 242.426 144.47 242.439 136.568Z" fill="#F9F9F9"/>
<path d="M114.786 147.072C112.632 147.074 110.537 147.779 108.818 149.082L75.7962 174.092L75.4282 156.821C75.3758 154.217 74.3091 151.738 72.4571 149.915C70.6051 148.092 68.1154 147.072 65.5226 147.072H29.1167C26.4875 147.072 23.9659 146.023 22.1067 144.156C20.2476 142.288 19.2031 139.756 19.2031 137.115V30.0494C19.2031 27.4085 20.2476 24.8757 22.1067 23.0083C23.9659 21.1409 26.4875 20.0919 29.1167 20.0919H212.522C215.151 20.0919 217.673 21.1409 219.532 23.0083C221.391 24.8757 222.436 27.4085 222.436 30.0494V137.115C222.436 139.756 221.391 142.288 219.532 144.156C217.673 146.023 215.151 147.072 212.522 147.072H114.786Z" fill="#333652"/>
<path d="M183.718 65.4994C183.718 68.1638 182.664 70.719 180.788 72.603C178.912 74.4869 176.369 75.5453 173.716 75.5453H68.8991C66.2465 75.5688 63.6933 74.5329 61.8011 72.6655C60.8642 71.7408 60.1178 70.6399 59.6045 69.4255C59.0912 68.2111 58.821 66.9071 58.8095 65.5878C58.7979 64.2686 59.0452 62.96 59.5371 61.7367C60.0291 60.5134 60.7561 59.3995 61.6766 58.4584C63.5358 56.5578 66.0705 55.4769 68.7231 55.4535H173.716C175.03 55.4524 176.331 55.7116 177.545 56.216C178.759 56.7205 179.862 57.4605 180.791 58.3935C181.719 59.3266 182.456 60.4345 182.958 61.6538C183.461 62.8731 183.719 64.1799 183.718 65.4994Z" fill="#FAD02C"/>
<path d="M165.627 108.898C165.627 111.562 164.573 114.117 162.697 116.001C160.822 117.885 158.278 118.944 155.625 118.944H87.006C84.3534 118.968 81.7998 117.933 79.9069 116.067C78.014 114.2 76.9368 111.655 76.9124 108.99C76.888 106.326 77.9183 103.761 79.7768 101.86C81.6352 99.9583 84.1694 98.8764 86.822 98.8519H155.633C158.284 98.854 160.826 99.9134 162.7 101.797C164.574 103.681 165.627 106.235 165.627 108.898Z" fill="#FAD02C"/>
<path d="M215.083 128.186C218.384 128.186 219.761 129.844 219.211 133.161L211.37 177.805C211.002 179.916 209.58 181.665 207.105 183.053C198.208 187.875 186.878 190.272 173.116 190.246C160.09 190.246 149.885 187.205 142.503 181.124C135.12 175.043 131.426 165.643 131.421 152.923C131.522 148.288 131.991 143.668 132.821 139.108C135.851 121.507 142.228 108.769 151.952 100.893C161.677 93.0172 174.428 89.0765 190.207 89.0712C203.686 89.0712 213.776 91.6054 220.475 96.6739C221.756 97.6866 222.489 98.6322 222.676 99.5109C222.86 100.387 222.54 101.649 221.716 103.312L214.531 115.729C212.978 118.494 210.549 119.23 207.241 117.939C202.28 116.023 197.01 115.04 191.695 115.038C182.883 115.038 176.346 116.835 172.084 120.431C167.822 124.026 164.869 130.434 163.226 139.654C162.724 142.532 162.456 145.445 162.426 148.366C162.426 154.078 163.917 158.155 166.899 160.598C169.881 163.041 174.489 164.263 180.725 164.263C183.135 164.337 185.544 164.067 187.878 163.459L190.223 149.917H182.653C179.352 149.917 177.975 148.31 178.525 145.095L180.589 133.209C181.122 129.892 182.957 128.234 186.094 128.234L215.083 128.186Z" fill="#333652"/>
<path d="M173.116 201.899C157.401 201.899 144.623 197.937 135.142 190.133C124.98 181.759 119.819 169.238 119.819 152.923C119.906 147.645 120.42 142.382 121.355 137.187C124.876 116.734 132.709 101.488 144.639 91.8198C156.433 82.2641 171.756 77.4179 190.183 77.4179C206.401 77.4179 218.587 80.6326 227.429 87.3674L227.613 87.5121C231.101 90.2526 233.213 93.4914 234.014 97.1561C234.814 100.821 234.118 104.397 232.037 108.496L231.701 109.123L225.46 119.972C226.167 120.541 226.818 121.176 227.405 121.869C229.461 124.28 231.701 128.588 230.605 135.065V135.17L222.764 179.814C221.804 185.367 218.227 190.149 212.706 193.227L212.554 193.308C202.024 199.014 188.75 201.899 173.116 201.899ZM190.183 100.724C177.012 100.724 166.883 103.746 159.21 109.959C151.792 115.97 146.752 126.442 144.231 141.085C143.523 144.994 143.119 148.952 143.023 152.923C143.023 162.053 145.263 168.321 149.856 172.107C155.081 176.406 162.906 178.592 173.116 178.592C184.198 178.592 193.351 176.856 200.32 173.433L206.225 139.839H191.527L201.632 151.894L199.296 165.436L191.199 174.606C187.785 175.557 184.251 176.001 180.709 175.924C171.636 175.924 164.706 173.875 159.546 169.648C155.545 166.377 150.808 160.003 150.808 148.382C150.843 144.82 151.173 141.266 151.792 137.758V137.613C153.961 125.518 158.153 116.991 164.594 111.534C171.035 106.077 180.093 103.417 191.663 103.417C196.834 103.419 201.979 104.155 206.945 105.603L208.273 103.288C203.721 101.6 197.584 100.724 190.183 100.724Z" fill="#333652"/>
<path d="M286.358 166.794C289.457 165.605 291.236 166.567 291.695 169.68L293.063 178.199C293.426 180.588 292.092 182.56 289.062 184.114C281.397 188.052 272.684 190.021 262.922 190.021C251.064 190.021 241.874 187.409 235.35 182.185C228.826 176.961 225.588 169.447 225.636 159.642C225.642 156.738 225.909 153.841 226.436 150.986C228.629 138.615 233.51 129.108 241.079 122.464C248.648 115.82 258.266 112.504 269.931 112.514C279.789 112.514 287.5 115.105 293.063 120.286C298.627 125.467 301.408 132.494 301.408 141.366C301.431 143.949 301.2 146.528 300.72 149.065L299.488 155.656C298.955 158.774 297.13 160.333 294.015 160.333H253.209V161.434C253.667 167.665 258.503 170.781 267.715 170.781C274.13 170.701 280.467 169.347 286.358 166.794ZM259.69 134.648C257.455 136.85 255.7 140.332 254.425 145.095H276.452L276.588 144.131C276.845 142.806 276.984 141.462 277.005 140.113C277.005 134.256 274.129 131.326 268.379 131.32C266.785 131.257 265.194 131.516 263.702 132.082C262.209 132.648 260.845 133.51 259.69 134.615V134.648Z" fill="#333652"/>
<path d="M262.954 201.674C248.456 201.674 236.75 198.186 228.149 191.299C221.692 186.131 213.994 176.439 213.994 159.642C214.013 156.037 214.35 152.441 215.003 148.897C217.651 133.956 223.852 122.094 233.405 113.688C243.119 105.169 255.401 100.829 269.907 100.829C282.709 100.829 293.167 104.494 300.92 111.703C308.922 119.153 312.986 129.126 312.986 141.35C313.007 144.675 312.707 147.993 312.09 151.259L310.882 157.745C310.518 160.107 309.662 162.364 308.368 164.37C307.075 166.375 305.374 168.084 303.377 169.382L304.505 176.414C305.649 183.856 301.881 190.599 294.447 194.489C285.102 199.255 274.532 201.674 262.954 201.674ZM246.392 133.522C242.127 138.264 239.318 144.677 237.846 153.028C237.432 155.208 237.215 157.422 237.198 159.642C237.198 167.799 240.287 171.215 242.615 173.071C244.294 174.385 246.171 175.422 248.176 176.141C244.341 172.512 242.007 167.565 241.639 162.286V161.434V160.333L250.44 151.493L243.239 142.033C243.991 139.093 245.047 136.241 246.392 133.522ZM285.646 148.68H288.958L289.319 146.775C289.644 144.991 289.797 143.18 289.775 141.366C289.775 135.491 288.102 132.188 286.422 130.115C287.885 133.226 288.621 136.632 288.574 140.072C288.556 142.022 288.368 143.966 288.014 145.883L287.91 146.687L285.646 148.68Z" fill="#333652"/>
<path d="M377.725 183.005C377.191 186.107 375.466 187.658 372.548 187.658H353.465C350.195 187.658 348.832 186.107 349.376 183.005L355.913 145.899C356.171 144.358 356.31 142.8 356.329 141.238C356.329 137.316 354.42 135.355 350.6 135.355C344.877 135.355 341.332 139.105 339.967 146.606L333.566 183.029C333.032 186.131 331.307 187.682 328.389 187.682H309.298C306.028 187.682 304.665 186.131 305.209 183.029L316.659 118.397C317.192 115.295 318.918 113.744 321.836 113.744H338.742C341.471 113.744 342.919 114.933 343.103 117.304L343.783 122.126C349.694 115.461 356.964 112.131 365.595 112.137C379.133 112.137 385.905 118.89 385.91 132.397C385.848 136.028 385.482 139.646 384.814 143.215L377.725 183.005Z" fill="#333652"/>
<path d="M372.548 199.311H353.465C346.92 199.311 343.103 196.386 341.055 193.935L340.951 193.806C339.379 195.585 337.44 196.999 335.27 197.949C333.099 198.9 330.748 199.365 328.381 199.311H309.298C302.753 199.311 298.936 196.386 296.888 193.935C295.231 191.949 292.615 187.618 293.783 180.979L305.233 116.332C306.761 107.668 313.234 102.067 321.836 102.067H338.742C341.907 102.026 345.019 102.884 347.72 104.542C353.281 101.804 359.402 100.407 365.595 100.459C385.598 100.459 397.512 112.386 397.512 132.373C397.458 136.688 397.035 140.99 396.248 145.232L389.151 185.118C387.622 193.685 381.109 199.311 372.548 199.311ZM362.386 176.005H367.187L373.396 141.109C373.941 138.217 374.246 135.284 374.308 132.341C374.308 128.982 373.7 126.458 372.652 125.413C371.604 124.369 369.011 123.734 365.595 123.734C363.075 123.691 360.579 124.219 358.29 125.277C364.211 127.945 367.891 133.78 367.891 141.238C367.875 143.408 367.691 145.574 367.339 147.715V147.932L362.386 176.005ZM318.227 176.005H323.028L328.557 144.557C330.477 134.037 335.558 128.789 340.487 126.193L337.774 125.389H327.205L318.227 176.005ZM331.501 118.164C331.501 118.309 331.501 118.454 331.549 118.598L331.501 118.164Z" fill="#333652"/>
<path d="M420.108 183.005C419.555 186.107 417.835 187.658 414.923 187.658H395.84C392.564 187.658 391.202 186.107 391.751 183.005L403.201 118.373C403.734 115.271 405.46 113.72 408.378 113.72H427.469C430.733 113.72 432.096 115.271 431.557 118.373L420.108 183.005ZM434.846 102.549C434.312 105.71 432.507 107.29 429.429 107.29H409.426C406.188 107.29 404.854 105.71 405.425 102.549L406.673 95.155C407.207 91.9939 408.967 90.4133 411.954 90.4133H431.957C435.286 90.4133 436.673 91.9939 436.118 95.155L434.846 102.549Z" fill="#333652"/>
<path d="M414.923 199.311H395.84C389.295 199.311 385.486 196.386 383.438 193.935C381.773 191.949 379.157 187.618 380.325 180.979L391.783 116.332C392.206 113.77 393.163 111.327 394.591 109.163C393.634 106.387 393.424 103.407 393.983 100.524L395.264 93.2262C396.808 84.3858 403.361 78.76 411.97 78.76H431.973C438.55 78.76 442.375 81.6935 444.439 84.1607C446.112 86.1538 448.736 90.5017 447.56 97.1803L446.312 104.574C445.821 107.579 444.586 110.412 442.719 112.812C443.398 115.284 443.502 117.88 443.023 120.398L431.565 185.046C429.997 193.685 423.484 199.311 414.923 199.311ZM404.777 176.005H409.578L418.547 125.373H413.746L404.777 176.005Z" fill="#333652"/>
<path d="M445.44 118.373C445.973 115.271 447.699 113.72 450.616 113.72H469.676C472.945 113.72 474.308 115.271 473.764 118.373L466.955 156.853C466.703 158.254 466.564 159.673 466.539 161.096C466.539 164.745 468.358 166.569 471.996 166.569C477.719 166.569 481.219 162.918 482.494 155.615L489.039 118.373C489.572 115.271 491.298 113.72 494.215 113.72H513.299C516.568 113.72 517.931 115.271 517.387 118.373L505.937 183.005C505.404 186.107 503.678 187.658 500.76 187.658H483.878C481.333 187.658 479.88 186.471 479.517 184.098L478.837 179.276C476.84 182.37 474.033 184.853 470.724 186.452C466.903 188.398 462.669 189.383 458.386 189.321C451.297 189.321 445.962 187.84 442.383 184.877C438.804 181.914 437.009 177.007 436.998 170.154C437.089 167.032 437.41 163.921 437.958 160.847L445.44 118.373Z" fill="#333652"/>
<path d="M458.386 200.918C448.576 200.918 440.703 198.507 434.998 193.822C428.597 188.542 425.396 180.561 425.396 170.098C425.473 166.373 425.831 162.66 426.469 158.991V158.782L433.966 116.34C435.542 107.692 442.055 102.067 450.616 102.067H469.676C476.077 102.067 479.845 104.847 481.925 107.258C483.499 105.571 485.409 104.236 487.531 103.342C489.653 102.447 491.939 102.013 494.239 102.067H513.323C519.868 102.067 523.724 104.992 525.733 107.443C527.389 109.436 530.005 113.76 528.837 120.398L517.387 185.046C515.867 193.701 509.386 199.311 500.785 199.311H483.878C480.914 199.345 477.996 198.579 475.428 197.093C470.119 199.678 464.285 200.987 458.386 200.918ZM449.384 162.72C448.94 165.156 448.672 167.622 448.584 170.098C448.584 174.011 449.424 175.555 449.744 175.82C450.248 176.238 452.385 177.612 458.386 177.612C460.392 177.651 462.387 177.296 464.259 176.567C458.546 173.931 454.961 168.273 454.961 161.064C454.984 159 455.174 156.941 455.529 154.908V154.78L460.77 125.373H455.969L449.384 162.72ZM481.981 175.892L487.174 176.969C486.181 176.352 485.045 176.009 483.878 175.972H495.416L504.393 125.341H499.592L493.927 157.608C492.415 166.361 488.15 172.742 481.981 175.924V175.892Z" fill="#333652"/>
<path d="M544.392 189.755C534.177 189.755 525.829 188.381 519.348 185.633C516.68 184.534 515.995 182.563 517.291 179.718L521.54 170.644C522.905 167.719 525.039 166.711 527.941 167.622C532.317 169.062 536.89 169.805 541.495 169.824C548.963 169.824 552.697 168.404 552.697 165.565C552.697 163.55 549.776 161.579 543.935 159.65C541.295 158.734 539.031 157.842 537.166 156.974C535.08 155.949 533.109 154.705 531.285 153.261C529.198 151.673 527.53 149.595 526.429 147.209C525.247 144.602 524.662 141.763 524.716 138.899C524.614 134.599 525.527 130.336 527.381 126.458C529.059 123.038 531.656 120.157 534.878 118.14C538.262 116.068 541.959 114.562 545.824 113.68C550.287 112.672 554.852 112.187 559.426 112.233C569.46 112.233 577.258 113.471 582.822 115.946C585.382 117.135 586.022 119.104 584.742 121.853L580.637 130.927C579.266 133.761 577.133 134.768 574.236 133.948C570.098 132.754 565.812 132.153 561.506 132.164C555.761 132.164 552.889 133.584 552.889 136.424C552.889 138.626 555.945 140.916 562.058 143.295C568.075 145.583 572.705 148.331 575.949 151.541C579.192 154.75 580.811 158.967 580.805 164.191C580.795 181.228 568.657 189.75 544.392 189.755Z" fill="#333652"/>
<path d="M544.391 201.409C532.51 201.409 522.852 199.761 514.867 196.378C512.888 195.622 511.085 194.465 509.571 192.978C508.056 191.492 506.863 189.708 506.065 187.738C504.969 184.958 504.185 180.505 506.681 174.928L506.753 174.767L510.994 165.693C512.612 162.063 515.423 159.101 518.955 157.303C517.745 155.712 516.707 153.996 515.859 152.184C513.953 148.019 512.991 143.482 513.042 138.899C512.943 132.777 514.287 126.719 516.963 121.218C519.606 115.884 523.68 111.397 528.725 108.263C533.179 105.529 538.042 103.535 543.127 102.356C548.47 101.145 553.933 100.557 559.41 100.604C571.188 100.604 580.381 102.147 587.502 105.313L587.694 105.402C589.611 106.232 591.341 107.443 592.779 108.962C594.218 110.482 595.335 112.278 596.064 114.242C597.064 116.991 597.728 121.379 595.264 126.739L591.063 136.022C589.613 139.145 587.289 141.775 584.374 143.592C589.599 148.945 592.375 156.057 592.375 164.207C592.375 179.79 584.734 188.421 578.317 192.93C570.196 198.628 559.09 201.409 544.391 201.409ZM559.346 154.755C560.91 156.083 562.167 157.737 563.029 159.603C563.891 161.468 564.338 163.5 564.339 165.557C564.325 167.604 563.885 169.626 563.045 171.492C562.206 173.358 560.987 175.027 559.466 176.39C569.187 173.537 569.187 167.735 569.187 164.183C569.187 161.217 568.235 160.285 567.787 159.835C566.491 158.557 563.995 156.716 559.346 154.755ZM545.528 125.904C543.957 126.456 542.449 127.175 541.031 128.049C539.589 128.927 538.428 130.201 537.686 131.722C536.668 133.972 536.183 136.429 536.27 138.899C536.231 140.048 536.441 141.191 536.886 142.25C537.193 142.942 537.673 143.543 538.278 143.994C539.458 144.928 540.732 145.737 542.079 146.405C543.519 147.072 545.28 147.788 547.44 148.535C544.047 145.746 541.271 141.848 541.271 136.432C541.295 132.512 542.802 128.748 545.488 125.904H545.528Z" fill="#333652"/>
<path d="M215.179 128.588C218.48 128.588 219.857 130.246 219.307 133.563L211.466 178.207C211.098 180.32 209.682 182.072 207.201 183.455C198.304 188.277 186.974 190.674 173.212 190.648C160.186 190.648 149.981 187.607 142.599 181.526C135.216 175.445 131.525 166.044 131.525 153.325C131.615 148.691 132.073 144.071 132.893 139.51C135.923 121.909 142.3 109.16 152.024 101.263C161.749 93.3655 174.5 89.4248 190.279 89.4409C203.758 89.4409 213.848 91.9751 220.547 97.0436C221.836 98.0563 222.564 99.0046 222.748 99.8806C222.932 100.757 222.612 102.018 221.788 103.682L214.635 116.115C213.077 118.879 210.645 119.616 207.337 118.325C202.376 116.408 197.106 115.425 191.791 115.424C182.984 115.424 176.447 117.221 172.18 120.816C167.912 124.411 164.955 130.814 163.306 140.024C162.804 142.901 162.536 145.815 162.506 148.736C162.506 154.447 163.997 158.525 166.979 160.968C169.961 163.411 174.569 164.633 180.805 164.633C183.215 164.707 185.624 164.436 187.958 163.829L190.279 150.287H182.709C179.408 150.287 178.031 148.68 178.581 145.465L180.645 133.579C181.178 130.262 183.013 128.604 186.15 128.604L215.179 128.588Z" fill="#FAD02C"/>
<path d="M285.958 166.361C289.057 165.171 290.836 166.133 291.295 169.246L292.663 177.765C293.026 180.154 291.692 182.126 288.662 183.68C280.997 187.618 272.284 189.587 262.522 189.587C250.664 189.587 241.473 186.975 234.95 181.751C228.426 176.527 225.164 169.013 225.164 159.208C225.174 156.304 225.441 153.408 225.964 150.552C228.157 138.181 233.037 128.674 240.607 122.03C248.176 115.386 257.801 112.064 269.483 112.064C279.336 112.064 287.043 114.655 292.607 119.836C298.171 125.017 300.971 132.06 301.008 140.964C301.031 143.547 300.8 146.126 300.32 148.664L299.096 155.254C298.563 158.372 296.736 159.931 293.615 159.931H252.841V161.032C253.299 167.263 258.135 170.379 267.347 170.379C273.754 170.285 280.079 168.92 285.958 166.361ZM259.786 135.017C257.551 137.219 255.796 140.702 254.521 145.465H276.548L276.684 144.501C276.941 143.176 277.08 141.831 277.101 140.482C277.101 134.626 274.225 131.695 268.475 131.69C266.879 131.632 265.287 131.896 263.794 132.468C262.301 133.039 260.938 133.906 259.786 135.017Z" fill="#FAD02C"/>
<path d="M377.829 183.406C377.277 186.509 375.556 188.06 372.644 188.06H353.561C350.291 188.06 348.928 186.509 349.472 183.406L356.057 146.269C356.313 144.728 356.449 143.169 356.465 141.607C356.465 137.685 354.556 135.724 350.736 135.724C345.013 135.724 341.468 139.475 340.103 146.976L333.702 183.398C333.15 186.501 331.429 188.052 328.517 188.052H309.394C306.119 188.052 304.756 186.501 305.305 183.398L316.755 118.767C317.288 115.665 319.014 114.114 321.932 114.114H338.839C341.567 114.114 343.015 115.303 343.199 117.674L343.879 122.496C349.795 115.842 357.055 112.514 365.659 112.514C379.208 112.514 385.979 119.268 385.974 132.775C385.911 136.405 385.547 140.023 384.886 143.592L377.829 183.406Z" fill="#FAD02C"/>
<path d="M420.204 183.406C419.67 186.509 417.942 188.06 415.019 188.06H395.936C392.666 188.06 391.303 186.509 391.847 183.406L403.265 118.775C403.798 115.673 405.527 114.122 408.45 114.122H427.533C430.808 114.122 432.171 115.673 431.621 118.775L420.204 183.406ZM434.942 102.951C434.408 106.112 432.606 107.692 429.533 107.692H409.53C406.292 107.692 404.958 106.112 405.529 102.951L406.777 95.5568C407.337 92.3984 409.09 90.8152 412.058 90.8152H432.061C435.39 90.8152 436.78 92.3957 436.23 95.5568L434.942 102.951Z" fill="#FAD02C"/>
<path d="M445.536 118.775C446.069 115.673 447.795 114.122 450.712 114.122H469.804C473.068 114.122 474.431 115.673 473.892 118.775L467.075 157.255C466.825 158.656 466.689 160.075 466.667 161.498C466.667 165.147 468.483 166.971 472.116 166.971C477.845 166.971 481.344 163.32 482.614 156.017L489.159 118.775C489.692 115.673 491.418 114.122 494.335 114.122H513.419C516.694 114.122 518.059 115.673 517.515 118.775L506.057 183.406C505.524 186.509 503.798 188.06 500.881 188.06H483.974C481.429 188.06 479.973 186.87 479.613 184.499L478.933 179.677C476.928 182.752 474.122 185.214 470.82 186.798C466.997 188.745 462.76 189.73 458.474 189.667C451.385 189.667 446.05 188.186 442.471 185.223C438.892 182.26 437.097 177.352 437.086 170.499C437.174 167.378 437.492 164.267 438.038 161.193L445.536 118.775Z" fill="#FAD02C"/>
<path d="M544.488 189.964C534.273 189.964 525.925 188.59 519.443 185.842C516.776 184.738 516.094 182.769 517.395 179.935L521.636 170.861C523.001 167.93 525.135 166.923 528.037 167.839C532.412 169.272 536.982 170.012 541.583 170.033C549.051 170.033 552.785 168.613 552.785 165.774C552.785 163.754 549.864 161.785 544.023 159.867C541.723 159.088 539.464 158.192 537.254 157.183C535.143 156.166 533.148 154.924 531.301 153.478C529.216 151.888 527.549 149.81 526.445 147.426C525.263 144.816 524.678 141.974 524.732 139.108C524.629 134.809 525.545 130.548 527.405 126.675C529.087 123.25 531.693 120.367 534.926 118.357C538.31 116.282 542.006 114.773 545.872 113.889C550.335 112.884 554.9 112.401 559.474 112.45C569.508 112.45 577.306 113.685 582.87 116.155C585.43 117.352 586.07 119.321 584.79 122.07L580.685 131.135C579.314 133.98 577.181 134.99 574.284 134.165C570.149 132.969 565.866 132.366 561.562 132.373C555.812 132.373 552.937 133.796 552.937 136.641C552.937 138.832 555.993 141.122 562.106 143.512C568.123 145.8 572.753 148.548 575.997 151.758C579.24 154.967 580.872 159.181 580.893 164.4C580.893 181.448 568.758 189.97 544.488 189.964Z" fill="#FAD02C"/>
</svg>
